<?xml version="1.0" standalone="no"?>
<!DOCTYPE svg PUBLIC "-//W3C//DTD SVG 20010904//EN"
 "http://www.w3.org/TR/2001/REC-SVG-20010904/DTD/svg10.dtd">
<svg version="1.0" xmlns="http://www.w3.org/2000/svg"
 width="128.000000pt" height="128.000000pt" viewBox="0 0 128.000000 128.000000"
 preserveAspectRatio="xMidYMid meet">
<metadata>
Created by potrace 1.15, written by Peter Selinger 2001-2017
</metadata>
<g transform="translate(0.000000,128.000000) scale(0.100000,-0.100000)"
fill="#FFFFFF" stroke="none">
<path d="M230 1180 c-86 -18 -105 -67 -98 -253 3 -90 6 -110 26 -136 12 -17
22 -34 22 -38 0 -5 -19 -17 -42 -28 -34 -16 -44 -27 -51 -55 -10 -41 -4 -367
7 -393 5 -10 23 -25 40 -35 27 -15 68 -17 322 -18 l292 -2 63 -44 c86 -61 101
-68 168 -79 65 -10 145 1 167 23 38 38 33 184 -9 277 -20 41 -23 59 -17 89 19
87 42 350 38 442 -4 122 -9 128 -109 141 -41 6 -112 17 -159 25 -47 8 -140 14
-207 14 -119 0 -123 1 -138 24 -9 14 -31 30 -48 36 -43 15 -212 21 -267 10z
m190 -186 c0 -43 4 -50 60 -107 l60 -62 31 34 c26 28 30 39 25 66 -5 22 -2 36
9 45 24 20 45 -5 45 -56 0 -34 -7 -51 -30 -77 l-30 -34 77 -59 c73 -56 86 -72
230 -292 85 -129 148 -230 141 -226 -7 5 -111 79 -230 166 -211 155 -218 161
-268 240 l-51 81 -30 -29 c-24 -23 -39 -29 -74 -29 -27 0 -50 6 -60 16 -14 14
-14 17 4 33 15 13 24 15 37 8 21 -12 58 4 87 36 18 19 17 21 -45 86 -56 58
-68 66 -101 66 -41 0 -43 4 -31 94 l7 46 68 0 69 0 0 -46z m532 -124 c11 14
31 39 45 55 l25 30 -7 -75 c-4 -41 -14 -138 -23 -214 l-17 -139 -79 194 c-44
107 -86 210 -94 229 -13 33 -9 30 58 -35 l71 -70 21 25z m-535 -380 l207 -120
-207 0 c-114 0 -207 3 -207 8 0 4 22 20 50 35 27 15 52 32 56 38 3 6 -22 44
-55 85 -34 41 -59 74 -56 74 3 0 98 -54 212 -120z"/>
</g>
</svg>
