<?xml version="1.0" standalone="no"?>
<!DOCTYPE svg PUBLIC "-//W3C//DTD SVG 20010904//EN"
 "http://www.w3.org/TR/2001/REC-SVG-20010904/DTD/svg10.dtd">
<svg version="1.0" xmlns="http://www.w3.org/2000/svg"
 width="128.000000pt" height="128.000000pt" viewBox="0 0 128.000000 128.000000"
 preserveAspectRatio="xMidYMid meet">
<metadata>
Created by potrace 1.15, written by Peter Selinger 2001-2017
</metadata>
<g transform="translate(0.000000,128.000000) scale(0.100000,-0.100000)"
fill="#FFFFFF" stroke="none">
<path d="M548 1181 c-20 -4 -44 -13 -52 -20 -28 -24 -158 -232 -201 -323 -65
-140 -77 -198 -73 -358 3 -123 6 -140 32 -197 69 -150 199 -211 425 -201 89 5
118 10 169 33 72 32 143 103 172 171 44 101 44 321 2 444 -46 132 -205 402
-258 436 -27 18 -159 27 -216 15z m160 -218 c124 -182 202 -360 202 -462 0
-202 -213 -335 -395 -247 -30 15 -68 44 -85 64 -37 45 -70 130 -70 178 0 81
51 222 126 347 61 101 145 218 154 212 4 -2 35 -44 68 -92z"/>
<path d="M480 607 c-42 -94 -38 -156 12 -212 28 -32 65 -45 81 -28 4 3 -3 22
-16 42 -18 29 -23 56 -27 135 -6 115 -19 132 -50 63z"/>
</g>
</svg>
