<?xml version="1.0" standalone="no"?>
<!DOCTYPE svg PUBLIC "-//W3C//DTD SVG 20010904//EN"
 "http://www.w3.org/TR/2001/REC-SVG-20010904/DTD/svg10.dtd">
<svg version="1.0" xmlns="http://www.w3.org/2000/svg"
 width="128.000000pt" height="128.000000pt" viewBox="0 0 128.000000 128.000000"
 preserveAspectRatio="xMidYMid meet">
<metadata>
Created by potrace 1.15, written by Peter Selinger 2001-2017
</metadata>
<g transform="translate(0.000000,128.000000) scale(0.100000,-0.100000)"
fill="#FFFFFF" stroke="none">
<path d="M416 1211 c-49 -10 -91 -55 -107 -113 -12 -45 -8 -239 5 -270 6 -13
2 -19 -21 -23 -125 -28 -176 -69 -189 -152 -12 -77 -9 -482 5 -531 18 -66 44
-77 176 -77 123 1 183 16 275 70 50 30 64 33 165 38 184 10 269 36 381 119 84
63 99 96 98 228 0 192 -71 357 -214 500 -105 106 -175 153 -271 186 -81 28
-231 40 -303 25z m208 -163 c65 -21 121 -57 199 -125 121 -108 190 -219 227
-368 l20 -80 -54 -51 c-102 -96 -209 -130 -388 -121 -102 4 -108 3 -128 -18
-35 -37 -131 -83 -193 -93 -31 -5 -59 -7 -62 -4 -3 3 -5 96 -5 207 0 196 1
202 23 223 32 30 70 42 134 42 65 0 116 -21 144 -61 l21 -29 31 22 c46 33 139
38 177 9 16 -11 31 -21 33 -21 3 0 -16 42 -41 93 -25 50 -59 126 -77 168 -31
76 -32 77 -56 63 -14 -7 -55 -13 -96 -14 l-71 0 -12 36 c-15 43 -6 93 21 128
24 30 47 29 153 -6z"/>
</g>
</svg>
