<?xml version="1.0" standalone="no"?>
<!DOCTYPE svg PUBLIC "-//W3C//DTD SVG 20010904//EN"
 "http://www.w3.org/TR/2001/REC-SVG-20010904/DTD/svg10.dtd">
<svg version="1.0" xmlns="http://www.w3.org/2000/svg"
 width="128.000000pt" height="128.000000pt" viewBox="0 0 128.000000 128.000000"
 preserveAspectRatio="xMidYMid meet">
<metadata>
Created by potrace 1.15, written by Peter Selinger 2001-2017
</metadata>
<g transform="translate(0.000000,128.000000) scale(0.100000,-0.100000)"
fill="#FFFFFF" stroke="none">
<path d="M555 1224 c-170 -24 -265 -65 -354 -155 -69 -68 -121 -166 -142 -264
-16 -77 -16 -273 0 -350 44 -205 201 -362 406 -406 77 -16 273 -16 350 0 157
33 294 138 359 274 45 96 60 169 60 307 0 138 -15 211 -60 307 -63 133 -203
241 -351 272 -59 12 -223 21 -268 15z m184 -155 c162 -37 303 -178 340 -340
64 -275 -155 -549 -439 -549 -245 0 -450 205 -450 450 0 203 150 393 347 439
52 12 149 13 202 0z"/>
<path d="M549 967 c-103 -29 -181 -96 -228 -197 -21 -45 -26 -70 -26 -140 0
-76 3 -92 33 -152 38 -77 92 -130 171 -166 80 -38 202 -38 282 0 79 36 133 89
171 166 30 60 33 76 33 152 0 99 -27 169 -90 239 -78 86 -233 130 -346 98z
m185 -79 c60 -18 148 -109 165 -171 32 -112 10 -199 -68 -278 -79 -78 -166
-100 -278 -68 -64 17 -153 105 -172 168 -16 56 -16 127 1 183 15 53 107 149
158 165 48 15 144 15 194 1z"/>
<path d="M549 777 c-55 -37 -79 -81 -79 -147 0 -102 68 -170 170 -170 102 0
170 68 170 170 0 66 -24 110 -79 147 -47 32 -135 32 -182 0z m140 -61 c67 -35
65 -143 -4 -174 -51 -23 -107 -7 -131 39 -47 91 44 182 135 135z"/>
</g>
</svg>
