<?xml version="1.0" standalone="no"?>
<!DOCTYPE svg PUBLIC "-//W3C//DTD SVG 20010904//EN"
 "http://www.w3.org/TR/2001/REC-SVG-20010904/DTD/svg10.dtd">
<svg version="1.0" xmlns="http://www.w3.org/2000/svg"
 width="128.000000pt" height="128.000000pt" viewBox="0 0 128.000000 128.000000"
 preserveAspectRatio="xMidYMid meet">
<metadata>
Created by potrace 1.15, written by Peter Selinger 2001-2017
</metadata>
<g transform="translate(0.000000,128.000000) scale(0.100000,-0.100000)"
fill="#FFFFFF" stroke="none">
<path d="M132 1271 c-23 -4 -50 -15 -60 -24 -24 -25 -29 -151 -9 -231 9 -33
18 -111 20 -171 3 -93 7 -119 30 -168 15 -33 37 -71 50 -87 19 -23 25 -43 30
-112 9 -132 35 -188 131 -283 44 -44 93 -99 108 -122 34 -53 68 -63 211 -63
131 0 165 12 203 72 15 23 39 51 53 62 118 89 181 212 181 355 0 38 7 57 31
91 59 81 72 124 79 265 4 72 13 146 19 165 15 44 16 166 2 203 -14 36 -46 47
-134 47 -102 0 -145 -15 -193 -65 -35 -36 -45 -57 -64 -129 -20 -76 -28 -91
-66 -125 -59 -55 -110 -69 -168 -47 -51 19 -113 82 -122 123 -30 137 -70 199
-147 227 -53 19 -129 26 -185 17z m106 -161 c50 -36 69 -70 78 -139 14 -108
103 -194 234 -226 81 -20 141 -16 227 17 103 38 161 110 182 223 13 71 34 102
87 132 53 31 61 29 30 -7 -32 -39 -40 -83 -32 -179 9 -106 -10 -164 -74 -234
l-50 -55 11 -51 c23 -108 -20 -204 -139 -310 -45 -40 -75 -76 -82 -97 -11 -34
-12 -34 -70 -34 l-59 0 -26 48 c-14 26 -41 58 -61 71 -113 78 -172 202 -153
323 8 52 8 53 -30 93 -21 22 -49 60 -62 85 -21 40 -23 57 -21 161 2 106 0 119
-22 162 -14 26 -22 47 -17 47 4 0 27 -13 49 -30z"/>
<path d="M452 595 c-34 -73 3 -154 79 -176 62 -19 64 -2 8 81 -27 41 -52 85
-55 98 -8 29 -18 28 -32 -3z"/>
<path d="M779 578 c-12 -24 -39 -69 -60 -100 -22 -32 -35 -60 -29 -63 19 -11
80 7 105 32 33 33 46 83 34 128 -14 50 -26 51 -50 3z"/>
</g>
</svg>
