<?xml version="1.0" standalone="no"?>
<!DOCTYPE svg PUBLIC "-//W3C//DTD SVG 20010904//EN"
 "http://www.w3.org/TR/2001/REC-SVG-20010904/DTD/svg10.dtd">
<svg version="1.0" xmlns="http://www.w3.org/2000/svg"
 width="128.000000pt" height="128.000000pt" viewBox="0 0 128.000000 128.000000"
 preserveAspectRatio="xMidYMid meet">
<metadata>
Created by potrace 1.15, written by Peter Selinger 2001-2017
</metadata>
<g transform="translate(0.000000,128.000000) scale(0.100000,-0.100000)"
fill="#FFFFFF" stroke="none">
<path d="M526 1250 c-39 -12 -64 -37 -71 -71 -5 -23 -19 -35 -81 -64 -95 -46
-163 -113 -208 -207 -30 -61 -41 -74 -78 -92 -58 -28 -71 -68 -66 -198 4 -110
20 -143 76 -162 26 -9 38 -24 66 -82 53 -111 130 -185 235 -224 39 -15 47 -24
59 -60 21 -61 55 -73 198 -68 101 3 115 5 137 26 14 13 27 37 31 53 4 20 14
33 33 40 122 46 203 119 257 230 30 64 41 78 67 85 18 5 41 22 53 37 19 25 21
42 21 146 0 134 -11 161 -71 181 -31 10 -40 21 -65 77 -40 89 -123 175 -213
218 -59 28 -73 40 -90 77 -16 32 -30 46 -56 55 -40 14 -191 15 -234 3z m166
-186 l3 -45 66 -22 c75 -26 145 -78 187 -140 33 -48 62 -118 62 -147 0 -17 7
-20 50 -20 l50 0 0 -50 0 -50 -50 0 c-43 0 -50 -3 -50 -20 0 -10 -9 -44 -21
-75 -37 -100 -145 -195 -256 -224 l-43 -12 0 -49 0 -50 -50 0 -50 0 0 49 c0
48 -1 50 -32 56 -132 28 -260 155 -286 282 -8 37 -9 38 -55 41 l-47 3 0 49 0
49 47 3 c46 3 47 4 55 41 25 121 141 240 266 271 47 12 47 12 50 59 l3 47 49
0 49 0 3 -46z"/>
<path d="M583 950 c-93 -19 -172 -81 -220 -173 -24 -45 -28 -64 -28 -137 0
-104 22 -158 90 -224 126 -123 325 -113 448 24 54 60 77 121 77 204 0 183
-189 341 -367 306z m-120 -142 c9 -7 24 -37 34 -67 22 -66 54 -92 121 -99 95
-9 147 26 171 115 7 24 20 47 31 53 28 15 30 13 14 -17 -8 -17 -12 -41 -8 -60
8 -44 -1 -75 -32 -112 -16 -19 -24 -38 -20 -47 14 -35 -7 -86 -55 -137 -27
-29 -49 -55 -49 -59 0 -5 -11 -8 -25 -8 -16 0 -40 16 -72 51 -57 60 -77 101
-69 144 5 23 2 36 -9 45 -30 25 -45 68 -45 128 0 32 -5 63 -12 70 -16 16 4 16
25 0z"/>
</g>
</svg>
