<?xml version="1.0" standalone="no"?>
<!DOCTYPE svg PUBLIC "-//W3C//DTD SVG 20010904//EN"
 "http://www.w3.org/TR/2001/REC-SVG-20010904/DTD/svg10.dtd">
<svg version="1.0" xmlns="http://www.w3.org/2000/svg"
 width="128.000000pt" height="120.000000pt" viewBox="0 0 128.000000 120.000000"
 preserveAspectRatio="xMidYMid meet">
<metadata>
Created by potrace 1.15, written by Peter Selinger 2001-2017
</metadata>
<g transform="translate(0.000000,120.000000) scale(0.100000,-0.100000)"
fill="#FFFFFF" stroke="none">
<path d="M331 1165 c-145 -70 -261 -222 -296 -390 -19 -89 -19 -270 0 -358 17
-84 63 -177 115 -238 30 -36 50 -49 87 -58 55 -14 72 -26 84 -59 5 -14 27 -31
54 -43 42 -18 63 -20 273 -17 l228 3 79 39 c147 73 252 207 290 370 19 79 21
291 5 376 -15 81 -73 193 -122 235 -23 19 -68 45 -100 57 -44 16 -60 27 -64
45 -10 38 -40 48 -149 48 -61 0 -108 5 -122 13 -14 8 -67 12 -155 12 -132 0
-134 0 -207 -35z m228 -131 c-70 -101 -86 -211 -45 -299 54 -118 215 -196 305
-148 100 53 100 183 -1 183 -21 0 -39 -10 -62 -35 -40 -42 -60 -44 -82 -9 -16
23 -16 31 -2 97 10 47 13 88 8 120 -8 52 0 60 20 22 14 -27 30 -33 30 -12 0
15 45 59 77 76 38 19 46 12 19 -20 -36 -43 -35 -63 4 -55 17 3 54 1 82 -5 69
-15 147 -90 176 -170 116 -317 -122 -656 -458 -653 -65 1 -99 7 -145 25 l-60
23 69 8 c82 8 138 42 168 100 17 31 18 43 9 71 -17 49 -66 89 -138 111 -21 7
-23 4 -23 -25 0 -23 10 -41 39 -70 l39 -39 -38 0 c-23 0 -51 9 -74 25 -20 14
-39 25 -42 25 -7 0 6 -51 22 -84 8 -16 12 -31 9 -34 -7 -8 -66 20 -96 46 l-29
24 0 -48 0 -48 -46 44 c-58 58 -109 159 -124 249 -31 184 79 403 246 493 42
23 135 55 167 57 4 1 -6 -20 -24 -45z"/>
</g>
</svg>
