<?xml version="1.0" standalone="no"?>
<!DOCTYPE svg PUBLIC "-//W3C//DTD SVG 20010904//EN"
 "http://www.w3.org/TR/2001/REC-SVG-20010904/DTD/svg10.dtd">
<svg version="1.0" xmlns="http://www.w3.org/2000/svg"
 width="128.000000pt" height="128.000000pt" viewBox="0 0 128.000000 128.000000"
 preserveAspectRatio="xMidYMid meet">
<metadata>
Created by potrace 1.15, written by Peter Selinger 2001-2017
</metadata>
<g transform="translate(0.000000,128.000000) scale(0.100000,-0.100000)"
fill="#FFFFFF" stroke="none">
<path d="M515 1265 c-77 -27 -169 -151 -199 -268 l-13 -52 -109 -6 c-176 -9
-194 -28 -194 -192 0 -119 15 -183 66 -287 68 -137 219 -256 350 -276 49 -7
49 -8 58 -106 2 -32 7 -62 11 -68 8 -14 292 -14 300 0 4 6 9 36 11 68 9 98 9
99 58 106 24 4 76 22 116 42 102 49 185 134 238 244 51 108 65 169 64 285 0
154 -23 174 -206 184 l-99 6 -14 54 c-30 118 -130 249 -208 270 -55 15 -182
13 -230 -4z m189 -171 c83 -83 126 -186 126 -305 l0 -56 52 26 c46 22 66 26
148 26 l95 0 -1 -50 c-2 -65 -49 -179 -105 -251 -71 -92 -185 -155 -311 -171
l-47 -6 -3 -101 c-3 -93 -5 -101 -23 -101 -18 0 -20 8 -23 101 l-3 101 -47 6
c-126 16 -240 79 -311 171 -56 72 -103 186 -105 251 l-1 50 95 0 c82 0 102 -4
148 -26 l52 -26 0 61 c0 75 20 152 54 210 35 59 114 136 141 136 12 0 42 -20
69 -46z"/>
</g>
</svg>
