<?xml version="1.0" standalone="no"?>
<!DOCTYPE svg PUBLIC "-//W3C//DTD SVG 20010904//EN"
 "http://www.w3.org/TR/2001/REC-SVG-20010904/DTD/svg10.dtd">
<svg version="1.0" xmlns="http://www.w3.org/2000/svg"
 width="128.000000pt" height="128.000000pt" viewBox="0 0 128.000000 128.000000"
 preserveAspectRatio="xMidYMid meet">
<metadata>
Created by potrace 1.15, written by Peter Selinger 2001-2017
</metadata>
<g transform="translate(0.000000,128.000000) scale(0.100000,-0.100000)"
fill="#FFFFFF" stroke="none">
<path d="M295 1228 c-123 -23 -268 -126 -285 -203 -22 -94 -5 -206 33 -227 13
-6 61 -11 113 -11 77 0 100 4 149 27 70 32 77 32 122 2 l35 -24 -69 -7 c-139
-13 -215 -49 -281 -133 -52 -65 -63 -103 -63 -214 0 -122 16 -161 107 -258
110 -117 216 -160 410 -167 167 -7 252 7 353 58 134 67 251 207 251 300 0 32
5 40 35 58 63 37 75 80 75 273 0 191 3 185 -92 208 -37 10 -70 32 -150 102
-132 116 -188 153 -277 184 -117 41 -341 56 -466 32z m171 -192 c7 -48 7 -49
-17 -42 -82 23 -111 19 -208 -29 -56 -27 -98 -42 -103 -37 -13 13 76 88 147
124 58 30 152 51 167 38 4 -3 11 -28 14 -54z m123 44 c95 -18 189 -71 301
-170 58 -50 127 -107 154 -126 43 -29 51 -31 61 -18 10 14 14 13 35 -4 24 -19
24 -22 13 -74 -15 -73 -39 -127 -58 -134 -33 -13 -265 144 -415 280 -47 42
-104 89 -127 102 l-43 26 0 64 c0 71 -3 70 79 54z m126 -513 c234 -89 309
-119 319 -128 4 -4 -10 -34 -32 -67 -197 -288 -589 -289 -781 -1 -23 34 -41
65 -41 69 0 16 76 119 108 145 93 77 189 73 427 -18z"/>
<path d="M385 539 c-28 -16 -75 -61 -86 -82 -21 -39 72 -140 170 -185 46 -22
71 -26 142 -26 76 0 93 3 150 31 35 18 84 52 108 77 40 41 42 46 25 52 -10 4
-57 22 -103 40 -47 19 -86 34 -88 34 -1 0 0 -19 3 -43 10 -69 -28 -123 -97
-140 -67 -17 -149 43 -149 109 0 31 3 34 29 34 16 0 37 7 45 16 22 21 31 63
17 77 -16 16 -141 20 -166 6z"/>
</g>
</svg>
