<?xml version="1.0" standalone="no"?>
<!DOCTYPE svg PUBLIC "-//W3C//DTD SVG 20010904//EN"
 "http://www.w3.org/TR/2001/REC-SVG-20010904/DTD/svg10.dtd">
<svg version="1.0" xmlns="http://www.w3.org/2000/svg"
 width="128.000000pt" height="128.000000pt" viewBox="0 0 128.000000 128.000000"
 preserveAspectRatio="xMidYMid meet">
<metadata>
Created by potrace 1.15, written by Peter Selinger 2001-2017
</metadata>
<g transform="translate(0.000000,128.000000) scale(0.100000,-0.100000)"
fill="#3AA14A" stroke="none">
<path d="M312 1166 c-57 -19 -70 -31 -82 -77 -9 -34 -15 -39 -58 -51 -43 -12
-49 -19 -77 -73 -30 -58 -30 -61 -30 -214 0 -148 1 -159 26 -212 15 -31 58
-92 97 -136 55 -63 81 -84 114 -94 39 -13 43 -18 51 -55 6 -31 26 -63 78 -122
63 -73 74 -82 120 -91 59 -13 117 -13 179 -2 39 8 55 19 112 83 66 71 80 95
92 150 5 21 14 29 41 34 28 5 52 25 111 88 41 44 86 104 100 132 49 100 51
337 4 437 -26 55 -40 67 -83 76 -23 5 -36 15 -45 36 -23 53 -29 60 -63 80 -29
17 -51 20 -159 20 -69 -1 -150 -2 -180 -4 -30 -1 -111 0 -180 3 -92 4 -136 2
-168 -8z m202 -138 c25 -8 58 -30 84 -57 l44 -45 36 39 c40 42 102 74 144 75
30 0 108 -28 108 -39 0 -9 -280 -306 -288 -306 -5 0 -72 68 -149 150 -150 159
-153 166 -89 184 44 13 63 13 110 -1z m-46 -327 l93 -99 -83 -87 -83 -87 -75
86 c-41 48 -83 103 -92 124 -38 81 -32 176 15 251 l21 34 55 -61 c31 -33 98
-106 149 -161z m592 147 c17 -40 21 -65 18 -112 -5 -81 -25 -118 -116 -222
l-77 -87 -78 84 c-43 46 -76 89 -75 95 2 6 66 79 143 162 97 104 144 147 151
141 7 -5 22 -33 34 -61z m-336 -417 c43 -43 77 -83 75 -89 -11 -29 -145 -173
-159 -170 -9 2 -49 40 -90 86 l-73 83 24 27 c45 51 133 142 139 142 3 0 41
-36 84 -79z"/>
</g>
</svg>
