<?xml version="1.0" standalone="no"?>
<!DOCTYPE svg PUBLIC "-//W3C//DTD SVG 20010904//EN"
 "http://www.w3.org/TR/2001/REC-SVG-20010904/DTD/svg10.dtd">
<svg version="1.0" xmlns="http://www.w3.org/2000/svg"
 width="128.000000pt" height="128.000000pt" viewBox="0 0 128.000000 128.000000"
 preserveAspectRatio="xMidYMid meet">
<metadata>
Created by potrace 1.15, written by Peter Selinger 2001-2017
</metadata>
<g transform="translate(0.000000,128.000000) scale(0.100000,-0.100000)"
fill="#009F7A" stroke="none">
<path d="M442 1264 c-39 -27 -65 -92 -71 -179 l-6 -80 -93 -7 c-109 -7 -138
-22 -149 -75 -12 -55 -7 -178 9 -210 11 -23 29 -33 101 -57 l87 -29 1 -151 c0
-209 14 -428 28 -454 12 -22 14 -22 296 -22 l284 0 11 37 c7 23 13 149 16 312
2 151 5 276 8 278 2 2 34 12 71 23 98 28 111 40 125 107 13 58 7 162 -11 195
-16 29 -48 40 -143 47 l-91 6 -6 80 c-6 87 -32 152 -71 179 -33 23 -363 23
-396 0z m257 -112 c37 -20 71 -73 71 -110 0 -68 -64 -132 -130 -132 -66 0
-130 64 -130 132 0 60 69 128 130 128 14 0 41 -8 59 -18z m329 -319 c-3 -18
-30 -30 -145 -63 l-73 -21 -1 -87 c-1 -48 -1 -189 0 -313 1 -192 -1 -229 -15
-239 -23 -20 -32 -4 -61 106 -14 54 -31 105 -36 112 -5 6 -31 12 -58 12 -27 0
-51 -5 -56 -12 -4 -7 -21 -60 -38 -118 -56 -198 -72 -133 -74 302 l-1 237 -87
26 c-117 34 -133 42 -133 60 0 13 48 15 391 15 363 0 390 -1 387 -17z"/>
</g>
</svg>
