<?xml version="1.0" standalone="no"?>
<!DOCTYPE svg PUBLIC "-//W3C//DTD SVG 20010904//EN"
 "http://www.w3.org/TR/2001/REC-SVG-20010904/DTD/svg10.dtd">
<svg version="1.0" xmlns="http://www.w3.org/2000/svg"
 width="128.000000pt" height="128.000000pt" viewBox="0 0 128.000000 128.000000"
 preserveAspectRatio="xMidYMid meet">
<metadata>
Created by potrace 1.15, written by Peter Selinger 2001-2017
</metadata>
<g transform="translate(0.000000,128.000000) scale(0.100000,-0.100000)"
fill="#D16042" stroke="none">
<path d="M985 1253 c-16 -2 -68 -16 -114 -30 -85 -25 -131 -57 -131 -89 0 -13
-6 -15 -27 -11 -16 4 -59 13 -98 21 -107 23 -266 30 -389 17 -192 -21 -211
-39 -211 -201 0 -138 15 -162 115 -184 14 -3 52 -32 84 -65 l59 -60 -37 -15
c-20 -8 -44 -28 -53 -44 -9 -16 -32 -38 -50 -47 -41 -23 -56 -65 -55 -166 0
-94 15 -128 64 -151 25 -12 43 -30 52 -52 21 -50 47 -60 157 -60 105 0 140 13
161 59 6 14 26 34 45 45 20 11 40 35 49 56 l16 37 73 -73 c56 -56 75 -82 80
-109 13 -75 58 -101 180 -101 81 0 136 15 157 40 61 75 71 418 18 610 l-21 74
35 31 c52 45 88 166 90 300 1 106 -8 136 -46 156 -22 12 -154 20 -203 12z
m110 -164 c-14 -61 -62 -193 -72 -196 -5 -2 -17 13 -25 34 l-14 38 -64 -61
-64 -61 37 -51 c99 -134 144 -331 118 -516 -12 -88 -22 -106 -57 -106 -29 0
-47 32 -39 68 6 28 -8 43 -250 274 l-70 66 -67 -61 -68 -62 11 -39 c10 -36 9
-41 -15 -64 l-26 -26 -11 31 c-7 22 -15 30 -26 26 -12 -5 -14 -16 -9 -51 5
-35 2 -50 -11 -64 -26 -29 -40 -21 -53 31 -11 46 -14 50 -49 56 -59 10 -69 20
-46 45 17 19 27 21 66 16 33 -5 50 -2 58 7 13 16 5 27 -20 27 -27 0 -33 19
-13 41 15 16 25 19 62 13 44 -7 44 -6 108 57 l64 64 -147 147 c-143 143 -149
148 -189 148 -45 0 -68 18 -62 47 6 31 56 46 173 51 170 7 328 -31 437 -106
l44 -30 62 55 c34 30 62 58 62 62 0 4 -16 15 -36 25 -21 10 -33 21 -28 26 9 9
199 68 222 69 10 1 12 -7 7 -30z"/>
<path d="M465 800 l130 -130 72 72 c82 81 82 83 0 124 -69 35 -189 64 -266 64
l-66 0 130 -130z"/>
<path d="M712 697 l-73 -73 143 -139 c125 -123 143 -137 146 -116 6 38 -16
176 -38 238 -20 57 -83 163 -98 163 -4 0 -40 -33 -80 -73z"/>
</g>
</svg>
