<?xml version="1.0" standalone="no"?>
<!DOCTYPE svg PUBLIC "-//W3C//DTD SVG 20010904//EN"
 "http://www.w3.org/TR/2001/REC-SVG-20010904/DTD/svg10.dtd">
<svg version="1.0" xmlns="http://www.w3.org/2000/svg"
 width="128.000000pt" height="128.000000pt" viewBox="0 0 128.000000 128.000000"
 preserveAspectRatio="xMidYMid meet">
<metadata>
Created by potrace 1.15, written by Peter Selinger 2001-2017
</metadata>
<g transform="translate(0.000000,128.000000) scale(0.100000,-0.100000)"
fill="#CF740E" stroke="none">
<path d="M551 1250 c-55 -6 -69 -12 -93 -39 -15 -17 -28 -37 -28 -45 0 -9 -25
-15 -92 -20 -159 -11 -206 -64 -208 -232 0 -47 -2 -52 -37 -75 -56 -36 -65
-64 -65 -194 0 -129 9 -158 63 -193 36 -23 36 -24 42 -113 10 -148 48 -187
197 -198 88 -6 89 -6 112 -41 36 -53 65 -62 193 -62 128 0 157 9 193 62 23 35
24 35 112 41 152 12 189 50 198 200 l5 91 33 16 c52 25 66 66 66 198 0 129
-14 168 -70 193 -31 14 -32 17 -32 72 0 144 -40 210 -140 229 -30 6 -75 10
-99 8 -40 -2 -45 0 -70 37 -15 22 -38 45 -51 51 -34 16 -151 23 -229 14z m148
-172 c5 -18 11 -44 13 -58 2 -17 16 -32 43 -47 53 -30 69 -29 120 8 43 31 45
31 69 15 14 -9 33 -28 42 -42 16 -24 16 -27 -14 -70 -37 -52 -37 -54 -16 -111
17 -45 18 -45 117 -67 27 -6 28 -8 25 -64 l-3 -57 -55 -12 c-60 -13 -70 -22
-90 -82 -12 -38 -12 -41 19 -82 17 -24 31 -47 31 -53 0 -14 -61 -76 -75 -76
-7 0 -31 14 -53 30 -49 35 -52 35 -109 14 -32 -13 -45 -24 -49 -43 -3 -14 -10
-43 -15 -63 l-10 -38 -54 0 c-54 0 -54 0 -64 38 -6 20 -11 45 -11 54 0 20 -28
40 -81 58 -33 12 -38 11 -79 -19 -24 -17 -48 -31 -54 -31 -14 0 -76 61 -76 75
0 6 13 29 30 51 34 46 35 54 14 111 -13 33 -23 45 -43 49 -101 20 -101 20
-101 79 l0 54 38 10 c20 5 49 12 63 15 19 4 30 17 43 49 21 56 21 57 -14 103
-16 21 -30 43 -30 49 0 12 71 85 83 85 5 0 26 -13 47 -30 44 -35 50 -36 107
-14 32 13 45 24 49 43 3 14 10 43 15 64 l10 37 54 0 c52 0 54 -1 64 -32z"/>
<path d="M565 803 c-44 -23 -65 -44 -86 -85 -23 -45 -24 -86 -4 -135 20 -48
41 -71 87 -94 124 -63 270 48 244 185 -20 107 -150 177 -241 129z"/>
</g>
</svg>
