<?xml version="1.0" standalone="no"?>
<!DOCTYPE svg PUBLIC "-//W3C//DTD SVG 20010904//EN"
 "http://www.w3.org/TR/2001/REC-SVG-20010904/DTD/svg10.dtd">
<svg version="1.0" xmlns="http://www.w3.org/2000/svg"
 width="128.000000pt" height="128.000000pt" viewBox="0 0 128.000000 128.000000"
 preserveAspectRatio="xMidYMid meet">
<metadata>
Created by potrace 1.15, written by Peter Selinger 2001-2017
</metadata>
<g transform="translate(0.000000,128.000000) scale(0.100000,-0.100000)"
fill="#CBB51C" stroke="none">
<path d="M370 1245 c-111 -60 -173 -135 -212 -258 -29 -89 -37 -336 -14 -425
9 -35 16 -100 16 -145 0 -164 34 -268 121 -370 l41 -48 131 3 c132 3 132 3
145 30 7 14 18 80 25 145 l13 118 12 -119 c7 -66 18 -131 25 -145 12 -26 14
-26 144 -29 l131 -3 41 48 c23 25 58 80 78 120 35 71 36 78 41 206 2 74 10
151 18 175 19 57 19 287 0 385 -28 146 -107 252 -234 316 l-61 31 -198 0 -198
0 -65 -35z m415 -128 c122 -62 187 -158 205 -302 12 -91 4 -189 -16 -206 -11
-9 -14 -45 -14 -151 0 -137 -1 -142 -30 -197 -41 -77 -111 -157 -121 -139 -12
22 -33 359 -25 421 8 64 10 66 84 108 l53 30 -7 52 c-4 29 -10 56 -14 60 -4 5
-48 -9 -96 -30 -98 -44 -101 -48 -103 -146 -1 -61 -16 -100 -49 -130 -20 -18
-21 -17 -48 19 -26 33 -30 48 -34 126 l-5 89 -93 41 c-51 23 -95 38 -99 35 -3
-4 -9 -28 -14 -54 -8 -57 2 -73 72 -109 53 -26 59 -44 59 -173 0 -102 -21
-351 -30 -351 -13 0 -79 87 -115 150 l-35 62 0 138 c0 112 -3 142 -16 154 -19
20 -22 173 -5 256 28 137 125 232 296 290 47 16 53 16 100 0 28 -10 73 -29
100 -43z"/>
<path d="M482 928 l3 -51 76 -34 77 -35 76 35 76 36 0 50 c0 28 -4 51 -10 51
-5 0 -39 -14 -74 -32 l-65 -32 -73 32 c-40 18 -77 32 -81 32 -4 0 -7 -23 -5
-52z"/>
</g>
</svg>
