<?xml version="1.0" standalone="no"?>
<!DOCTYPE svg PUBLIC "-//W3C//DTD SVG 20010904//EN"
 "http://www.w3.org/TR/2001/REC-SVG-20010904/DTD/svg10.dtd">
<svg version="1.0" xmlns="http://www.w3.org/2000/svg"
 width="128.000000pt" height="128.000000pt" viewBox="0 0 128.000000 128.000000"
 preserveAspectRatio="xMidYMid meet">
<metadata>
Created by potrace 1.15, written by Peter Selinger 2001-2017
</metadata>
<g transform="translate(0.000000,128.000000) scale(0.100000,-0.100000)"
fill="#40A7AF" stroke="none">
<path d="M844 1261 c-66 -11 -88 -31 -107 -100 -18 -65 -36 -81 -107 -96 -20
-5 -48 -22 -67 -42 -23 -26 -44 -38 -79 -44 -87 -16 -93 -25 -124 -172 -20
-97 -55 -126 -196 -156 -96 -20 -116 -42 -122 -134 -5 -77 12 -142 41 -161 12
-8 57 -21 100 -30 133 -27 156 -50 187 -193 13 -61 25 -93 40 -105 26 -21 97
-32 165 -25 89 9 101 23 126 154 21 113 61 148 199 173 35 6 72 16 81 21 24
12 39 64 43 145 4 71 36 195 57 220 7 8 39 22 72 31 36 10 64 25 73 38 37 57
36 204 -3 247 -9 10 -40 25 -69 34 -62 18 -80 35 -99 101 -8 27 -23 57 -33 66
-15 14 -110 40 -131 36 -3 -1 -25 -5 -47 -8z m66 -154 c0 -91 56 -158 145
-177 33 -7 64 -16 68 -20 5 -4 -18 -12 -50 -19 -104 -20 -145 -63 -159 -165
-4 -25 -10 -46 -15 -46 -4 0 -12 23 -18 50 -22 103 -59 140 -158 160 -29 6
-53 15 -53 19 0 5 20 11 45 14 101 14 153 68 170 175 7 43 25 49 25 9z m-355
-344 c19 -98 40 -146 82 -185 36 -34 66 -46 178 -67 99 -20 98 -22 -24 -44
-156 -29 -207 -83 -238 -250 -8 -48 -19 -87 -23 -87 -4 0 -10 26 -13 58 -15
135 -61 217 -144 253 -23 10 -78 23 -122 30 -45 7 -81 16 -81 19 0 4 35 13 78
20 81 12 153 39 185 68 34 31 68 112 79 193 7 43 15 79 19 79 3 0 14 -39 24
-87z"/>
</g>
</svg>
