<?xml version="1.0" standalone="no"?>
<!DOCTYPE svg PUBLIC "-//W3C//DTD SVG 20010904//EN"
 "http://www.w3.org/TR/2001/REC-SVG-20010904/DTD/svg10.dtd">
<svg version="1.0" xmlns="http://www.w3.org/2000/svg"
 width="128.000000pt" height="128.000000pt" viewBox="0 0 128.000000 128.000000"
 preserveAspectRatio="xMidYMid meet">
<metadata>
Created by potrace 1.15, written by Peter Selinger 2001-2017
</metadata>
<g transform="translate(0.000000,128.000000) scale(0.100000,-0.100000)"
fill="#004646" stroke="none">
<path d="M424 1235 c-169 -37 -294 -164 -325 -330 -15 -78 -7 -221 15 -262 12
-24 16 -60 16 -146 0 -133 16 -197 68 -275 63 -95 169 -161 297 -183 100 -17
283 -7 364 21 148 50 253 171 282 326 14 75 6 216 -14 247 -11 17 -16 60 -19
163 -3 126 -6 144 -30 197 -56 119 -178 213 -315 242 -84 18 -257 18 -339 0z
m338 -167 c238 -111 285 -428 63 -428 -110 0 -178 107 -129 202 16 31 16 32
-14 59 -83 75 -264 57 -348 -32 -34 -36 -74 -105 -74 -126 0 -7 -4 -13 -10
-13 -6 0 -10 26 -10 58 0 71 32 143 91 207 74 80 143 106 279 102 79 -2 105
-7 152 -29z m-282 -446 c70 -35 99 -120 65 -186 -15 -27 -14 -31 7 -54 34 -36
79 -52 151 -52 126 0 205 48 259 158 l33 67 3 -58 c3 -48 -2 -66 -28 -116 -42
-79 -102 -138 -169 -169 -45 -21 -76 -27 -151 -30 -121 -5 -185 17 -266 90
-67 61 -105 132 -111 207 -4 47 -1 62 19 91 27 40 79 70 123 70 17 0 46 -8 65
-18z"/>
</g>
</svg>
