<?xml version="1.0" standalone="no"?>
<!DOCTYPE svg PUBLIC "-//W3C//DTD SVG 20010904//EN"
 "http://www.w3.org/TR/2001/REC-SVG-20010904/DTD/svg10.dtd">
<svg version="1.0" xmlns="http://www.w3.org/2000/svg"
 width="128.000000pt" height="128.000000pt" viewBox="0 0 128.000000 128.000000"
 preserveAspectRatio="xMidYMid meet">
<metadata>
Created by potrace 1.15, written by Peter Selinger 2001-2017
</metadata>
<g transform="translate(0.000000,128.000000) scale(0.100000,-0.100000)"
fill="#A13916" stroke="none">
<path d="M815 1259 c-25 -20 -30 -21 -80 -9 -66 16 -169 9 -215 -15 -37 -19
-131 -113 -255 -252 -69 -79 -74 -88 -114 -207 -36 -109 -41 -135 -41 -215 0
-84 2 -94 25 -116 13 -14 34 -25 47 -25 46 0 53 -13 33 -62 -22 -56 -31 -184
-16 -230 19 -58 101 -80 202 -53 l64 16 18 -25 c26 -36 105 -52 187 -38 34 6
69 17 78 24 53 44 169 202 217 296 30 59 79 149 109 201 62 106 81 176 71 258
-7 58 -31 93 -64 93 -34 0 -34 20 -1 91 44 95 54 172 34 267 -4 21 -7 22 -138
22 -121 0 -136 -2 -161 -21z m150 -129 c-14 -28 -60 -104 -102 -168 -42 -64
-98 -169 -125 -232 -45 -104 -56 -122 -127 -195 -43 -44 -120 -134 -171 -200
-121 -156 -126 -161 -95 -90 15 33 51 123 81 200 50 128 59 145 113 200 33 33
90 107 127 165 41 64 116 158 193 241 69 75 127 135 129 133 2 -1 -8 -25 -23
-54z m-311 -12 c-4 -7 -31 -48 -61 -91 -30 -43 -67 -113 -84 -155 -23 -63 -45
-96 -108 -168 -89 -101 -166 -176 -158 -154 3 8 24 69 46 135 l41 120 158 163
c140 145 188 188 166 150z m313 -420 c-28 -46 -81 -140 -117 -210 -45 -87 -92
-160 -150 -232 -86 -106 -106 -125 -91 -83 4 12 16 62 26 112 18 88 19 91 76
146 31 31 69 80 84 110 18 37 58 84 123 146 54 51 98 93 99 93 1 0 -21 -37
-50 -82z"/>
</g>
</svg>
