<?xml version="1.0" standalone="no"?>
<!DOCTYPE svg PUBLIC "-//W3C//DTD SVG 20010904//EN"
 "http://www.w3.org/TR/2001/REC-SVG-20010904/DTD/svg10.dtd">
<svg version="1.0" xmlns="http://www.w3.org/2000/svg"
 width="128.000000pt" height="128.000000pt" viewBox="0 0 128.000000 128.000000"
 preserveAspectRatio="xMidYMid meet">
<metadata>
Created by potrace 1.15, written by Peter Selinger 2001-2017
</metadata>
<g transform="translate(0.000000,128.000000) scale(0.100000,-0.100000)"
fill="#2C2668" stroke="none">
<path d="M380 1208 c-28 -10 -42 -26 -70 -78 -29 -53 -45 -71 -93 -100 -32
-19 -64 -44 -70 -55 -6 -11 -12 -61 -12 -110 0 -103 14 -136 68 -159 39 -16
87 -60 87 -79 0 -23 -25 -49 -81 -82 -63 -36 -78 -67 -78 -160 0 -94 15 -123
84 -164 50 -30 66 -47 95 -101 45 -83 71 -94 217 -88 90 4 110 9 167 37 73 36
127 91 152 158 14 36 21 43 44 43 48 0 153 39 200 73 26 20 58 56 75 88 29 53
30 58 30 189 0 116 -3 141 -21 181 -42 90 -132 152 -251 172 -61 11 -62 11
-79 56 -25 64 -97 133 -170 161 -72 28 -238 38 -294 18z m206 -160 c172 -80
179 -276 13 -361 -31 -16 -74 -31 -95 -34 -40 -5 -40 -5 -53 37 -17 57 -80
123 -143 150 l-52 22 51 24 c69 33 119 85 140 145 l18 50 40 -7 c22 -3 58 -15
81 -26z m334 -239 c81 -36 140 -113 140 -184 0 -78 -78 -168 -171 -198 -71
-23 -99 -22 -99 3 0 60 -76 146 -157 176 l-43 17 48 22 c85 40 127 87 156 179
5 15 12 17 44 11 20 -3 57 -15 82 -26z m-376 -223 c232 -70 233 -333 2 -401
-74 -22 -81 -20 -95 26 -16 54 -81 123 -143 151 l-49 22 48 23 c66 32 121 89
141 145 19 53 24 55 96 34z"/>
</g>
</svg>
