<?xml version="1.0" standalone="no"?>
<!DOCTYPE svg PUBLIC "-//W3C//DTD SVG 20010904//EN"
 "http://www.w3.org/TR/2001/REC-SVG-20010904/DTD/svg10.dtd">
<svg version="1.0" xmlns="http://www.w3.org/2000/svg"
 width="128.000000pt" height="128.000000pt" viewBox="0 0 128.000000 128.000000"
 preserveAspectRatio="xMidYMid meet">
<metadata>
Created by potrace 1.15, written by Peter Selinger 2001-2017
</metadata>
<g transform="translate(0.000000,128.000000) scale(0.100000,-0.100000)"
fill="#818B1C" stroke="none">
<path d="M550 1171 c-25 -4 -55 -13 -68 -19 -32 -18 -99 -107 -107 -142 -6
-25 -13 -32 -51 -41 -52 -13 -130 -91 -170 -172 -70 -137 -71 -364 -3 -504 32
-66 95 -130 163 -165 134 -69 397 -62 524 14 63 38 169 158 193 219 8 23 28
48 45 58 36 22 82 75 96 110 5 14 10 69 10 122 0 111 -15 154 -62 181 -18 10
-30 25 -30 38 0 44 -28 89 -68 109 -29 15 -42 29 -47 51 -9 43 -54 76 -113 83
-28 3 -65 17 -87 31 -21 14 -47 26 -59 26 -12 0 -43 2 -71 4 -27 3 -70 1 -95
-3z m128 -188 c2 -22 -7 -42 -38 -81 -35 -43 -47 -52 -74 -52 -68 0 -74 50
-15 126 22 29 50 55 62 57 33 5 62 -17 65 -50z m133 -14 c27 -14 39 -49 26
-74 -18 -35 -109 -140 -129 -149 -28 -14 -74 24 -71 58 1 14 26 56 58 95 67
84 79 90 116 70z m130 -143 c17 -36 5 -64 -52 -128 -53 -61 -71 -68 -107 -42
-36 25 -28 59 30 130 45 56 56 64 85 64 26 0 36 -6 44 -24z m-468 2 c25 -12
228 -177 239 -193 13 -17 9 -53 -8 -69 -29 -29 -62 -19 -140 45 -69 56 -109
72 -109 42 0 -14 137 -129 172 -145 37 -18 89 -1 122 39 l30 36 55 -42 c87
-67 86 -61 21 -142 -113 -137 -181 -174 -308 -167 -166 8 -285 127 -295 293
-5 88 19 157 84 238 59 74 92 89 137 65z m551 -134 c9 -8 16 -27 16 -41 0 -32
-64 -113 -90 -113 -54 0 -82 45 -54 89 48 75 95 99 128 65z"/>
</g>
</svg>
