<?xml version="1.0" standalone="no"?>
<!DOCTYPE svg PUBLIC "-//W3C//DTD SVG 20010904//EN"
 "http://www.w3.org/TR/2001/REC-SVG-20010904/DTD/svg10.dtd">
<svg version="1.0" xmlns="http://www.w3.org/2000/svg"
 width="128.000000pt" height="128.000000pt" viewBox="0 0 128.000000 128.000000"
 preserveAspectRatio="xMidYMid meet">
<metadata>
Created by potrace 1.15, written by Peter Selinger 2001-2017
</metadata>
<g transform="translate(0.000000,128.000000) scale(0.100000,-0.100000)"
fill="#1C603A" stroke="none">
<path d="M887 1273 c-4 -3 -46 -12 -94 -19 -47 -7 -92 -19 -100 -27 -22 -22
-34 -135 -23 -221 7 -57 6 -84 -4 -113 l-13 -38 -101 -6 c-141 -7 -162 -31
-162 -184 l0 -70 -125 -120 c-69 -66 -129 -133 -135 -148 -5 -16 -10 -67 -10
-115 0 -153 39 -192 193 -192 51 0 101 6 120 14 19 7 129 113 266 254 188 194
242 245 279 259 111 44 147 67 159 103 15 45 16 158 2 216 -11 41 -9 51 12 96
21 45 24 66 24 164 0 155 1 154 -160 154 -67 0 -125 -3 -128 -7z m153 -144 c0
-12 -31 -76 -70 -143 -75 -131 -125 -236 -111 -236 4 0 34 9 67 20 65 23 84
20 84 -9 0 -24 -5 -28 -106 -65 l-81 -31 -242 -250 c-133 -137 -251 -251 -262
-253 -26 -5 -59 25 -59 53 0 15 43 61 141 151 l141 129 -3 95 c-2 121 -3 120
20 120 27 0 34 -14 40 -89 l6 -65 87 79 c65 60 89 90 98 119 7 22 25 70 41
106 l30 66 -31 84 c-27 73 -29 85 -16 98 22 23 42 8 62 -45 9 -26 20 -52 24
-56 4 -4 27 26 50 67 35 60 48 76 67 76 17 0 23 -6 23 -21z"/>
</g>
</svg>
