<?xml version="1.0" standalone="no"?>
<!DOCTYPE svg PUBLIC "-//W3C//DTD SVG 20010904//EN"
 "http://www.w3.org/TR/2001/REC-SVG-20010904/DTD/svg10.dtd">
<svg version="1.0" xmlns="http://www.w3.org/2000/svg"
 width="128.000000pt" height="128.000000pt" viewBox="0 0 128.000000 128.000000"
 preserveAspectRatio="xMidYMid meet">
<metadata>
Created by potrace 1.15, written by Peter Selinger 2001-2017
</metadata>
<g transform="translate(0.000000,128.000000) scale(0.100000,-0.100000)"
fill="#765036" stroke="none">
<path d="M396 1185 c-21 -8 -51 -27 -67 -44 -15 -17 -34 -31 -41 -31 -19 0
-114 -71 -171 -128 -55 -55 -67 -89 -67 -197 0 -92 10 -134 44 -184 28 -41 73
-191 81 -271 9 -82 26 -151 46 -191 24 -48 79 -95 126 -108 53 -15 179 -14
241 3 44 11 60 11 105 -1 33 -9 86 -13 147 -11 78 3 103 8 137 28 73 41 114
127 128 270 9 87 60 258 85 285 30 32 40 78 40 182 0 109 -8 132 -63 192 -43
47 -153 131 -173 131 -6 0 -27 15 -46 34 -20 19 -53 39 -74 45 -60 15 -431 12
-478 -4z m162 -145 c33 -31 48 -92 33 -140 -6 -21 -19 -46 -27 -55 -14 -14
-13 -18 9 -45 52 -61 41 -133 -28 -186 -21 -16 -44 -43 -51 -61 -17 -39 -9
-63 47 -150 50 -76 58 -125 30 -171 -24 -37 -76 -72 -107 -72 -35 0 -88 42
-111 90 -15 29 -26 78 -33 140 -5 52 -21 128 -35 169 -14 41 -25 90 -25 109 0
26 -5 35 -20 39 -24 6 -50 51 -50 86 0 25 21 49 53 60 9 4 17 13 17 21 0 22
29 46 56 46 14 0 24 6 24 15 0 23 44 47 74 39 21 -5 26 -3 26 14 0 26 47 72
74 72 12 0 32 -9 44 -20z m244 9 c11 -6 26 -26 34 -45 12 -30 17 -33 43 -28
24 5 33 1 51 -24 12 -17 35 -33 52 -36 21 -4 32 -14 39 -36 6 -16 17 -30 24
-30 59 0 59 -117 1 -140 -17 -6 -23 -17 -24 -43 -1 -19 -13 -70 -27 -113 -15
-44 -30 -120 -35 -171 -6 -67 -15 -104 -32 -135 -25 -47 -79 -88 -113 -88 -59
0 -133 92 -120 148 3 16 27 64 52 107 63 105 63 134 1 189 -55 50 -68 73 -68
125 0 28 8 48 26 71 25 29 25 32 10 49 -42 46 -42 131 1 182 26 31 51 36 85
18z"/>
</g>
</svg>
