<?xml version="1.0" standalone="no"?>
<!DOCTYPE svg PUBLIC "-//W3C//DTD SVG 20010904//EN"
 "http://www.w3.org/TR/2001/REC-SVG-20010904/DTD/svg10.dtd">
<svg version="1.0" xmlns="http://www.w3.org/2000/svg"
 width="128.000000pt" height="128.000000pt" viewBox="0 0 128.000000 128.000000"
 preserveAspectRatio="xMidYMid meet">
<metadata>
Created by potrace 1.15, written by Peter Selinger 2001-2017
</metadata>
<g transform="translate(0.000000,128.000000) scale(0.100000,-0.100000)"
fill="#B354A7" stroke="none">
<path d="M605 1052 c-76 -6 -99 -15 -142 -55 -38 -35 -47 -39 -61 -29 -44 32
-85 42 -169 42 -138 0 -187 -36 -202 -146 -12 -82 1 -175 30 -213 l23 -31 -23
-31 c-29 -38 -42 -131 -30 -213 15 -110 64 -146 202 -146 85 0 125 10 169 42
15 11 23 7 55 -24 50 -49 81 -59 178 -59 97 0 128 10 178 59 32 31 40 35 55
24 44 -32 84 -42 169 -42 138 0 187 36 202 146 12 82 -1 175 -30 213 l-23 31
23 31 c29 38 42 131 30 213 -15 110 -64 146 -202 146 -84 0 -125 -10 -169 -42
-14 -10 -23 -6 -61 29 -28 26 -58 44 -79 47 -56 9 -92 11 -123 8z m140 -242
l111 -111 88 92 89 91 41 -41 41 -41 -90 -90 -90 -90 90 -90 90 -90 -42 -41
-41 -42 -88 92 -87 92 -112 -111 -112 -112 -109 112 -109 112 -88 -92 -89 -93
-41 42 -42 41 90 90 90 90 -90 90 -90 90 41 41 41 41 89 -92 89 -92 105 110
c58 60 107 110 110 111 3 1 55 -49 115 -109z"/>
<path d="M565 690 l-70 -70 70 -70 70 -70 70 70 70 70 -70 70 -70 70 -70 -70z"/>
</g>
</svg>
